<svg width="55" height="37" viewBox="0 0 55 37" fill="none" xmlns="http://www.w3.org/2000/svg">
<path d="M40.1037 36.708V16.308H46.4937C48.7137 16.308 50.6137 16.818 52.1937 17.838C53.7737 18.838 54.5637 20.508 54.5637 22.848C54.5437 25.168 53.6837 26.878 51.9837 27.978C50.3037 29.058 48.3837 29.598 46.2237 29.598H43.9737V36.708H40.1037ZM46.3737 19.548H43.9737V26.388H46.4337C47.5937 26.388 48.5337 26.128 49.2537 25.608C49.9737 25.068 50.3737 24.228 50.4537 23.088C50.4537 21.768 50.0937 20.848 49.3737 20.328C48.6537 19.808 47.6537 19.548 46.3737 19.548Z" fill="white"/>
<path d="M21.881 36.708V16.308H28.271C30.491 16.308 32.391 16.818 33.971 17.838C35.551 18.838 36.341 20.508 36.341 22.848C36.321 25.168 35.461 26.878 33.761 27.978C32.081 29.058 30.161 29.598 28.001 29.598H25.751V36.708H21.881ZM28.151 19.548H25.751V26.388H28.211C29.371 26.388 30.311 26.128 31.031 25.608C31.751 25.068 32.151 24.228 32.231 23.088C32.231 21.768 31.871 20.848 31.151 20.328C30.431 19.808 29.431 19.548 28.151 19.548Z" fill="white"/>
<path d="M9.51 21.648L6.84 28.758H12.24L9.51 21.648ZM11.25 16.308L19.17 36.168L15.27 36.708L13.44 31.908H5.7L3.9 36.708H0L7.95 16.308H11.25Z" fill="white"/>
<path d="M53.9739 0V12.708H51.6519V0.197999L53.9739 0Z" fill="white"/>
<path d="M49.1926 0V12.708H46.8706V0.197999L49.1926 0Z" fill="white"/>
<path d="M41.454 12.924C39.942 12.924 38.748 12.51 37.872 11.682C37.008 10.854 36.576 9.74402 36.576 8.35202C36.576 6.96002 36.966 5.84402 37.746 5.00402C38.538 4.16402 39.612 3.74402 40.968 3.74402C42.336 3.74402 43.338 4.20002 43.974 5.11202C44.622 6.01202 44.946 7.08002 44.946 8.31602V9.03602H39.06C39.168 9.61202 39.432 10.074 39.852 10.422C40.272 10.758 40.824 10.926 41.508 10.926C41.904 10.926 42.258 10.878 42.57 10.782C42.894 10.674 43.266 10.524 43.686 10.332L44.37 12.024C43.962 12.336 43.464 12.564 42.876 12.708C42.3 12.852 41.826 12.924 41.454 12.924ZM42.732 7.47002C42.612 6.88202 42.396 6.45002 42.084 6.17402C41.772 5.88602 41.382 5.74202 40.914 5.74202C40.434 5.74202 40.032 5.89202 39.708 6.19202C39.384 6.48002 39.174 6.90602 39.078 7.47002H42.732Z" fill="white"/>
<path d="M35.6388 12.528C35.4468 12.684 35.1708 12.81 34.8108 12.906C34.4628 13.014 34.1508 13.068 33.8748 13.068C32.7948 13.068 31.9428 12.798 31.3188 12.258C30.7068 11.706 30.4008 10.926 30.4008 9.91802V5.79602H29.2308V3.99602H30.4008V1.92602L32.7228 1.51202V3.99602H34.3068L35.0268 5.79602H32.7228V9.50402C32.7228 9.96002 32.8308 10.338 33.0468 10.638C33.2628 10.926 33.5808 11.07 34.0008 11.07C34.1568 11.07 34.3128 11.052 34.4688 11.016C34.6248 10.98 34.7868 10.92 34.9548 10.836L35.6388 12.528Z" fill="white"/>
<path d="M27.5992 6.33602C27.1792 6.14402 26.7892 6.00002 26.4292 5.90402C26.0692 5.79602 25.6852 5.74202 25.2772 5.74202C24.9772 5.74202 24.7432 5.80202 24.5752 5.92202C24.4192 6.03002 24.3412 6.18602 24.3412 6.39002C24.3412 6.53402 24.4372 6.67202 24.6292 6.80402C24.8332 6.93602 25.1572 7.08002 25.6012 7.23602C26.3332 7.50002 27.0112 7.87202 27.6352 8.35202C28.2592 8.82002 28.5712 9.43202 28.5712 10.188C28.5712 11.052 28.2592 11.724 27.6352 12.204C27.0232 12.684 26.1232 12.924 24.9352 12.924C24.5632 12.924 24.0652 12.852 23.4412 12.708C22.8292 12.564 22.3192 12.336 21.9112 12.024L22.6132 10.332C23.0332 10.524 23.4352 10.674 23.8192 10.782C24.2152 10.878 24.5752 10.926 24.8992 10.926C25.3312 10.926 25.6612 10.866 25.8892 10.746C26.1172 10.626 26.2312 10.47 26.2312 10.278C26.2312 10.038 26.1172 9.82202 25.8892 9.63002C25.6612 9.43802 25.3012 9.26402 24.8092 9.10802C24.1132 8.88002 23.4532 8.55602 22.8292 8.13602C22.2172 7.70402 21.9112 7.12802 21.9112 6.40802C21.9112 5.58002 22.2172 4.93202 22.8292 4.46402C23.4412 3.98402 24.2692 3.74402 25.3132 3.74402C25.6852 3.74402 26.1652 3.82202 26.7532 3.97802C27.3412 4.13402 27.8572 4.36202 28.3012 4.66202L27.5992 6.33602Z" fill="white"/>
<path d="M17.1786 12.924C15.6666 12.924 14.4726 12.51 13.5966 11.682C12.7326 10.854 12.3006 9.74402 12.3006 8.35202C12.3006 6.96002 12.6906 5.84402 13.4706 5.00402C14.2626 4.16402 15.3366 3.74402 16.6926 3.74402C18.0606 3.74402 19.0626 4.20002 19.6986 5.11202C20.3466 6.01202 20.6706 7.08002 20.6706 8.31602V9.03602H14.7846C14.8926 9.61202 15.1566 10.074 15.5766 10.422C15.9966 10.758 16.5486 10.926 17.2326 10.926C17.6286 10.926 17.9826 10.878 18.2946 10.782C18.6186 10.674 18.9906 10.524 19.4106 10.332L20.0946 12.024C19.6866 12.336 19.1886 12.564 18.6006 12.708C18.0246 12.852 17.5506 12.924 17.1786 12.924ZM18.4566 7.47002C18.3366 6.88202 18.1206 6.45002 17.8086 6.17402C17.4966 5.88602 17.1066 5.74202 16.6386 5.74202C16.1586 5.74202 15.7566 5.89202 15.4326 6.19202C15.1086 6.48002 14.8986 6.90602 14.8026 7.47002H18.4566Z" fill="white"/>
<path d="M5.90403 0.468018C7.09203 0.468018 8.05803 0.732017 8.80203 1.26002C9.54603 1.77602 9.91803 2.65202 9.91803 3.88802C9.91803 4.34402 9.81003 4.75802 9.59403 5.13002C9.39003 5.49002 9.12003 5.80202 8.78403 6.06602C9.33603 6.35402 9.78603 6.74402 10.134 7.23602C10.494 7.72802 10.674 8.35202 10.674 9.10802C10.674 10.236 10.278 11.118 9.48603 11.754C8.70603 12.39 7.66203 12.708 6.35403 12.708H1.33203V0.468018H5.90403ZM5.56203 2.41202H3.65403V5.45402H5.38203C6.03003 5.45402 6.53403 5.33402 6.89403 5.09402C7.26603 4.84202 7.45203 4.45202 7.45203 3.92402C7.45203 3.34802 7.28403 2.95202 6.94803 2.73602C6.61203 2.52002 6.15003 2.41202 5.56203 2.41202ZM6.33603 7.34402H3.65403V10.782H6.17403C6.79803 10.782 7.29603 10.638 7.66803 10.35C8.05203 10.062 8.24403 9.65402 8.24403 9.12602C8.24403 8.55002 8.07003 8.11202 7.72203 7.81202C7.37403 7.50002 6.91203 7.34402 6.33603 7.34402Z" fill="white"/>
</svg>
